<svg xmlns="http://www.w3.org/2000/svg"><path d="M100.5 120c-19.667 -49.333 -29.499 -78.499 -29.499 -87.499s-4.66699 -13.5 -14 -13.5c-20 0 -30 26.667 -30 80c0 106 10.667 212.5 32 319.5s46.666 192.667 75.999 257s56.666 96.5 81.999 96.5c10.667 0 16 -5.33301 16 -16c-35.333 -78 -64.833 -167 -88.5 -267 s-43.5 -206.667 -59.5 -320h7c84.667 208 167.667 312 249 312c34 0 51 -16.333 51 -49c-4.66699 -15.333 -10.667 -35.5 -18 -60.5s-17 -69.833 -29 -134.5s-18 -121.334 -18 -170.001c0 -70.667 10.333 -106 31 -106c7.33496 0 14.668 3.16699 22 9.5 c7.33301 6.33301 12.333 9.5 15 9.5c9.33301 0 9 -7.33301 -1 -22c-2.66699 -4.66699 -8.5 -11 -17.5 -19s-17.833 -12 -26.5 -12c-26 0 -46.167 18.167 -60.5 54.5s-21.5 83.5 -21.5 141.5c0 98 14.667 199 44 303c1.33301 10 -2.66699 14.333 -12 13 c-4.66895 -0.672852 -9.33594 -3.33984 -14 -8c-33.333 -30 -67.666 -77 -102.999 -141s-62.833 -120.667 -82.5 -170z"/></svg>
