<svg xmlns="http://www.w3.org/2000/svg"><path d="M723 -177c18 0 31.335 6.33203 40.002 18.999c4 0 6 -1.66699 6 -5s-1.66699 -8.33301 -5 -15c-14.667 -20 -32.667 -31 -54 -33c-33.335 0 -67.168 17.833 -101.5 53.5c-34.333 35.667 -65 78.834 -92 129.501s-52.167 101.5 -75.5 152.5s-44.333 94.333 -63 130 s-33.334 53.5 -44 53.5c-4.66113 4.66699 -1.32812 14.667 10 30c180.667 290 306.667 435 378 435c9.33301 0 16.666 -4.16699 21.999 -12.5s8.66602 -20.5 9.99902 -36.5c-28.667 0 -63.334 -19.333 -104.001 -58c-21.3359 -21.333 -40.1689 -40.833 -56.5 -58.5 c-16.3359 -17.667 -38.1689 -44.167 -65.5 -79.5c-34.667 -44.667 -78 -102 -130 -172c26.667 -18 76.667 -113 150 -285c26.668 -62.667 56.335 -119.667 89.001 -171c32.668 -51.333 61.335 -77 86 -77zM367.002 739.999c10.667 0 15.999 -5.33301 15.999 -16 c-52 -120 -95 -287.667 -129 -503c-13.333 -87.333 -20 -150.333 -20 -189c0 -8.66699 -4.66699 -13 -14 -13c-20 0 -30 26.667 -30 80c0 128.667 14.5 253.667 43.5 375s61.167 202.333 96.5 243c-95.333 -13.333 -172.666 -47 -231.999 -101c-34 -30 -51 -62.667 -51 -98 c0 -17.333 6.66699 -26 20 -26c-2.66699 -9.33301 -10 -14 -22 -14s-22.5 4.66699 -31.5 14c-9 9.33496 -13.5 22.335 -13.5 39c0 39.333 23.833 75.833 71.5 109.5s99.167 58.667 154.5 75s102.333 24.5 141 24.5z"/></svg>
